PathFileType	4	(X/Y/Z)	Patient4_TMGait_0pt4_03_right_11.trc.trc
DataRate	CameraRate	NumFrames	NumMarkers	Units	OrigDataRate	OrigDataStartFrame	OrigNumFrames
75.268817204301	75.268817204301	4	33	mm	75.268817204301	106	       141
Frame#	Time	Sacral			L.Shoulder			Chest			R.Shoulder			Neck			R.ASIS			L.ASIS			R.Thigh.Superior			R.Thigh.Lateral			R.Thigh.Inferior			R.Patella			L.Thigh.Superior			L.Thigh.Lateral			L.Thigh.Inferior			L.Patella			L.Shank.Superior			L.Shank.Lateral			L.Shank.Inferior			R.Shank.Superior			R.Shank.Lateral			R.Shank.Inferior			R.Heel			R.Midfoot.Superior			R.Midfoot.Lateral			R.Toe			L.Heel			L.Midfoot.Lateral			L.Midfoot.Superior			L.Toe			L.Elbow			L.Wrist			R.Elbow			R.Wrist			
		X1	Y1	Z1	X2	Y2	Z2	X3	Y3	Z3	X4	Y4	Z4	X5	Y5	Z5	X6	Y6	Z6	X7	Y7	Z7	X8	Y8	Z8	X9	Y9	Z9	X10	Y10	Z10	X11	Y11	Z11	X12	Y12	Z12	X13	Y13	Z13	X14	Y14	Z14	X15	Y15	Z15	X16	Y16	Z16	X17	Y17	Z17	X18	Y18	Z18	X19	Y19	Z19	X20	Y20	Z20	X21	Y21	Z21	X22	Y22	Z22	X23	Y23	Z23	X24	Y24	Z24	X25	Y25	Z25	X26	Y26	Z26	X27	Y27	Z27	X28	Y28	Z28	X29	Y29	Z29	X30	Y30	Z30	X31	Y31	Z31	X32	Y32	Z32	X33	Y33	Z33	

106	14.805000000000	795.305068219434	1015.410414290140	413.044357351683	999.472182633422	1435.757920022708	227.386108351919	1088.240181101146	1369.814021673022	397.576160158339	993.717355669035	1447.434442506753	564.265773432435	969.173414234612	1502.300428772943	383.006574787750	1017.402069080570	956.403745584116	544.536240738727	1019.093058300840	964.197758860890	269.565588025648	1100.688372107130	787.288230211641	523.753980241907	1061.594428956068	667.591095554875	601.339812330867	1152.999514099555	626.434470485959	526.883452557552	1175.420626903118	520.160380340373	554.293191011692	1055.472510325516	749.108596866157	301.993516014829	962.524954636994	637.577847989721	238.626444224827	1041.234267990981	557.253355772321	304.150774053963	1036.991215457822	489.402682453624	314.605010016220	1011.502669828038	418.224044921771	305.696089465555	922.183306678085	303.917305936368	254.823196053960	971.647043273454	193.427408499876	328.172267511447	1109.565311684308	438.659487758133	564.354117691401	996.628177393430	383.569156734556	628.380555672766	998.889547365431	271.507076403049	583.614145633440	810.849961978211	179.613405834602	562.737176210780	985.383202727873	144.675837308699	598.425434641697	878.358458130060	126.952782064520	633.584541607401	1066.634552660992	42.937733295538	622.565962434134	842.533637663048	38.440550944737	372.345633616180	914.814490633853	34.863109328139	289.937030477679	998.968675003514	96.337453856181	316.354770862143	1127.394890342435	42.233155575486	285.211295993232	1036.746889145643	1101.548668688765	75.535355882762	1232.320620131510	924.708665504390	74.193041533819	935.138286033569	1103.412093630173	685.557096738803	1018.241119088153	855.444602417771	699.875325038132	
107	14.818285714286	794.448313939523	1015.721902682724	411.364796115399	1001.117905553096	1435.757504862945	226.821266291703	1088.379746497456	1369.506587576184	397.651363920966	992.819709792628	1447.331391488439	563.599871639770	969.685559767982	1502.274932334792	382.318082373210	1015.694750369005	956.652378010664	544.468243379388	1018.956173150356	963.985244528173	269.398410699040	1099.562784309545	788.505215693367	523.612733614200	1061.241189536202	668.637152804049	601.249535926875	1152.508086755837	627.885121623944	526.501771345881	1176.596587057087	523.354382889181	554.070061397135	1053.275899073396	748.367095447924	302.679243329642	959.999732452366	637.510593980885	238.137976083067	1037.460317359925	556.614869599291	304.266559173877	1032.553779256283	488.919555887798	314.623626969503	1007.033434735536	417.930123828045	305.556198535366	917.572304484610	303.795190151421	254.536367405436	966.528050551409	193.256771543701	328.102745855324	1114.489089608886	440.108627619899	564.439961176043	1005.105349490496	379.016165762592	628.711600479989	1013.750734033453	267.194506733338	584.201946192010	831.519000288429	164.512469545985	563.361911909261	1007.535974027626	139.954017329217	599.473697391521	901.841873520049	116.372763796087	634.747172126391	1094.473738249459	43.488579738014	624.426583502687	837.151315369475	38.415466633415	372.332075559109	909.462371735536	34.814546561566	289.923540814959	993.602014011318	96.297519846404	316.371550488470	1122.058395553296	42.221868866741	285.240099008970	1041.147539458611	1102.427372152110	74.505491634697	1243.658465703430	933.671792894212	74.272391096665	928.053188200364	1104.042971919052	683.293535926072	1000.730268273228	852.816594604941	697.682901875936	
108	14.831571428571	793.703982327460	1015.961294446517	409.847599165588	1002.781396529808	1435.661663334273	226.447326292744	1088.608344097270	1369.100130878252	397.861318759170	992.109098693551	1447.133541135776	563.102735325480	970.260777853932	1502.155552843230	381.801053000529	1014.131304441530	956.661978755898	544.480338001947	1018.823235407601	963.699891893961	269.314232994432	1098.038077189869	788.940782000578	523.686298411297	1059.926010333659	669.061463162236	601.309289172261	1150.965305080383	628.396318665694	526.331456762231	1176.431806731388	525.888525800688	553.948181346918	1051.109804492139	747.612541028169	303.206553348761	957.421985566315	637.432823497769	237.608345082794	1033.702092835402	555.961687585521	304.207012774115	1028.163647700344	488.436847549053	314.455067996661	1002.588174557994	417.626911327305	305.298341174300	912.939287750158	303.671599523174	254.193216467246	961.407053804426	193.077735106599	327.948887055815	1118.497414506524	441.166274133945	564.640279112882	1013.378579416544	373.834594684509	629.233191882656	1028.899310144017	262.706607270697	584.930222352795	853.686866296666	148.890456235456	564.079543839126	1030.622535325250	135.345712289276	600.647698868640	926.699021415984	105.633702263515	636.019879441950	1123.252986669990	44.712652171783	626.385896056412	831.791332190707	38.403987200492	372.313589634732	904.121079673215	34.763595967670	289.907627900455	988.254278944966	96.249904873952	316.365602051977	1116.736357119939	42.171964845957	285.261550310997	1045.175676158461	1103.080371714148	73.855308133519	1254.203171765734	942.605058057585	74.856977955602	921.130173983407	1104.739756051937	681.174867680235	983.985422702179	850.906359839333	695.468991119649	
109	14.844857142857	793.092795594209	1016.127682371107	408.524825395994	1004.429570184818	1435.468764781969	226.261826902837	1088.922269168430	1368.599737799598	398.196276543211	991.599599861266	1446.852451415963	562.778961480059	970.891906303459	1501.945319133408	381.456567471305	1012.751481816752	956.429290701669	544.557292349928	1018.713107232835	963.372261946826	269.289209568738	1096.103816443966	788.558010215347	523.952381180261	1057.638566755757	668.851102550125	601.517736729963	1148.379694212294	627.955673987658	526.370531397353	1174.935940618236	527.726230242430	553.890350092739	1049.015995819486	746.842419921276	303.537471330693	954.788474794561	637.350359604514	237.053566685137	1029.959806634892	555.293523984953	303.981029327835	1023.819113756011	487.956634553632	314.120831166379	998.163924845889	417.318634444153	304.940696740550	908.282627192185	303.552131454172	253.804134827391	956.285679371903	192.892907360403	327.721557601924	1121.562071630737	441.877605850876	564.925721120518	1021.415545388495	368.222207352779	629.918972938935	1044.164725310488	258.310307736535	585.745750379417	877.174334192950	133.286976998586	564.838037699973	1054.363940287516	131.167857607660	601.857750723243	952.669363547139	95.175868172775	637.313461177073	1152.538910123713	46.863261511536	628.311902083286	826.452808132179	38.406917408640	372.288075303692	898.789030354164	34.712699864610	289.888601251956	982.922799567920	96.195234599923	316.338350285054	1111.425292889279	42.087713743846	285.273806124848	1048.868074018057	1103.499070289924	73.584669014598	1263.926767600717	951.397121980610	75.920904788831	914.392872401784	1105.518193171139	679.226278528820	968.084992824030	849.631712682890	693.302826340880	
